<svg xmlns="http://www.w3.org/2000/svg" version="1.1" xmlns:xlink="http://www.w3.org/1999/xlink"
    width="512"
    height="512"
    x="0"
    y="0"
    viewBox="0 0 60 61"
    style="enable-background:new 0 0 512 512"
    xml:space="preserve"
    class="hovered-paths">
    <g>
        <g transform="translate(-1)">
            <path 
                d="M58 10V3a2 2 0 0 0-2-2H26a2 2 0 0 0-2 2v7a2 2 0 0 0 2 2h3v5c0 .39-.4-.41 6.85 12a2 2 0 0 0 1.15.9V47a1 1 0 0 0 .45.83C40.71 50 40.59 50 41 50s.27 0 3.55-2.17A1 1 0 0 0 45 47V29.91a2 2 0 0 0 1.15-.9C53.39 16.6 53 17.39 53 17v-5h3a2 2 0 0 0 2-2zM43 36.46l-4 2.67v-2.59l4-2.67zm-4 5.08 4-2.67v2.59l-4 2.67zm4-10.08-4 2.67V30h4zM41 47.8l-2-1.3 4-2.63v2.59zM51 16H40a1 1 0 0 0 0 2h10.26l-5.83 10h-6.86l-5.83-10H35a1 1 0 0 0 0-2h-4v-4h20zm5-6H26V3h2v2a1 1 0 0 0 2 0V3h2v2a1 1 0 0 0 2 0V3h2v2a1 1 0 0 0 2 0V3h2v2a1 1 0 0 0 2 0V3h2v2a1 1 0 0 0 2 0V3h2v2a1 1 0 0 0 2 0V3h2v2a1 1 0 0 0 2 0V3h2z" 
                fill="#000000" 
                opacity="1" 
                data-original="#000000" 
                class="hovered-path">
            </path>
            <path 
                d="M60 46h-8.5a3 3 0 0 0-2.69 1.79C47.59 50.35 40.6 53 31 53s-16.6-2.65-17.81-5.21A3 3 0 0 0 10.5 46H2a1 1 0 0 0-1 1v13a1 1 0 0 0 1 1h58a1 1 0 0 0 1-1V47a1 1 0 0 0-1-1zm-1 13H3V48h7.5a1 1 0 0 1 .88.64C13.16 52.39 21.23 55 31 55s17.84-2.61 19.62-6.36a1 1 0 0 1 .88-.64H59z" 
                fill="#000000" 
                opacity="1" 
                data-original="#000000" 
                class="hovered-path">
            </path>
            <path 
                d="M33.29 46.71a1.004 1.004 0 0 0 1.42-1.42l-8-8a1.004 1.004 0 1 0-1.42 1.42zM47.29 46.71a1 1 0 0 0 1.42 0l8-8a1.004 1.004 0 1 0-1.42-1.42l-8 8a1 1 0 0 0 0 1.42z" 
                fill="#000000" 
                opacity="1" 
                data-original="#000000" 
                class="hovered-path">
            </path>
            <circle 
                cx="23" 
                cy="35" 
                r="1" 
                fill="#000000" 
                opacity="1" 
                data-original="#000000" 
                class="hovered-path">
            </circle>
            <circle 
                cx="59" 
                cy="35" 
                r="1" 
                fill="#000000" 
                opacity="1" 
                data-original="#000000" 
                class="hovered-path">
            </circle>
            <path 
                d="M34 40a1 1 0 0 0 .78-1.62l-4-5a1 1 0 1 0-1.56 1.24l4 5A1 1 0 0 0 34 40zM48 40a1 1 0 0 0 .78-.38l4-5a1 1 0 0 0-.15-1.4 1 1 0 0 0-1.41.16l-4 5A1 1 0 0 0 48 40zM16.43 44.6a3 3 0 0 0 3.94-1.6 10.21 10.21 0 0 0-4.54-13.26 4.26 4.26 0 0 1-1.94-5.66 10.2 10.2 0 0 0-4.54-13.24 4.27 4.27 0 0 1-1.94-5.66A3 3 0 1 0 1.9 2.82a10.2 10.2 0 0 0 4.53 13.26 4.27 4.27 0 0 1 1.94 5.67A10.2 10.2 0 0 0 12.91 35a4.27 4.27 0 0 1 1.94 5.67 3 3 0 0 0 1.58 3.93zm-2.55-11.34a8.27 8.27 0 0 1-3.67-10.73 6.24 6.24 0 0 0-2.8-8.2A8.25 8.25 0 0 1 3.73 3.61a1 1 0 1 1 1.84.78 6.25 6.25 0 0 0 2.81 8.2 8.25 8.25 0 0 1 3.67 10.72 6.24 6.24 0 0 0 2.81 8.2 8.27 8.27 0 0 1 3.67 10.73 1.001 1.001 0 0 1-1.84-.79 6.23 6.23 0 0 0-2.81-8.19zM26.79 18.89a3.003 3.003 0 0 0-5.58 2.22c1 2.6.06 3.44.06 3.44a3 3 0 0 0 3.39 4.95c.21-.14 5-3.43 2.13-10.61zm-3.24 8.94a1 1 0 0 1-1.53-1.039 1 1 0 0 1 .45-.641c.37-.28 2.14-1.94.6-5.78a1 1 0 1 1 1.86-.74c2.27 5.68-1.22 8.1-1.38 8.2z" 
                fill="#000000" 
                opacity="1" 
                data-original="#000000" 
                class="hovered-path">
            </path>
            <path 
                d="M7 35.67a3 3 0 0 0-5.63-1.11 3 3 0 0 0-.37 1.7c0 .24.6 6 8.28 7a3.017 3.017 0 0 0 .72-5.99c-2.75-.34-3-1.6-3-1.6zm3.67 4.69a1 1 0 0 1-1.12.88C3.46 40.5 3 36.27 3 36.08A1 1 0 0 1 3.91 35a1 1 0 0 1 1.09.94c.07.47.67 2.81 4.78 3.31a1 1 0 0 1 .87 1.11zM7 55H6a1 1 0 0 0 0 2h1a1 1 0 0 0 0-2zM18 55h-7a1 1 0 0 0 0 2h7a1 1 0 0 0 0-2z" 
                fill="#000000" 
                opacity="1" 
                data-original="#000000" 
                class="hovered-path">
            </path>
        </g>
    </g>
</svg>